<svg xmlns="http://www.w3.org/2000/svg" xmlns:xlink="http://www.w3.org/1999/xlink" version="1.1" x="0px" y="0px" viewBox="0 0 90 112.5" enable-background="new 0 0 90 90" xml:space="preserve" fill="#00ff5e"><g><path d="M79.3,71.9c-2.4-1-4.9-0.9-7.1,0l-9.8-13.2c-1.2,1.1-2.4,2-3.8,2.8l9.8,13.2c-0.5,0.7-1,1.4-1.4,2.2   c-2,4.8,0.2,10.3,5,12.3c4.8,2,10.3-0.3,12.3-5C86.4,79.4,84.1,74,79.3,71.9z"/><path d="M14.7,68c3.5-2,5.3-5.9,4.7-9.6l10.8-4.6c0-0.1-0.1-0.1-0.1-0.2c-0.7-1.3-1.3-2.7-1.7-4.1L17.6,54   c-2.8-3.6-7.8-4.7-11.9-2.5C1.1,54-0.5,59.7,2,64.3C4.5,68.8,10.2,70.5,14.7,68z"/><path d="M75.3,1.2c-4.5,2.5-6.2,8.2-3.7,12.8c0.1,0.2,0.2,0.3,0.4,0.5L61.5,25.8c1.3,0.9,2.4,2,3.5,3.2l10.4-11.3   c2.7,1.4,6.1,1.5,8.9-0.1c4.5-2.5,6.2-8.2,3.7-12.8C85.5,0.3,79.8-1.3,75.3,1.2z"/><circle cx="48.9" cy="43.1" r="16.1"/></g></svg>