<svg xmlns="http://www.w3.org/2000/svg" version="1.1" viewBox="-5.0 -10.0 110.0 135.0" fill="#FFAF50">
<path d="m39.188 87.5h21.625c-2.2344 3.8555-6.3555 6.2266-10.812 6.2266s-8.5781-2.3711-10.812-6.2266zm41.281-23.219c-1.5781-1.3008-2.4453-3.2695-2.3438-5.3125v-15.625c0-16.094-10.656-29-25-30.594v-3.375c0-1.7266-1.3984-3.125-3.125-3.125s-3.125 1.3984-3.125 3.125v3.3125c-6.0273 0.64844-11.68 3.25-16.094 7.4062-5.6797 5.3164-8.9062 12.75-8.9062 20.531v18.312c0.10547 2.0508-0.76172 4.0312-2.3438 5.3438-3.8555 2.7422-5.0625 7.9297-2.8125 12.094 1.6055 3.0703 4.8164 4.9609 8.2812 4.875h50c3.4297 0.050781 6.5977-1.8359 8.1875-4.875 2.2695-4.1406 1.1016-9.3203-2.7188-12.094z"/>
</svg>