<svg xmlns="http://www.w3.org/2000/svg" version="1.1" viewBox="-5.0 -10.0 110.0 135.0" fill="#00ff5e">
 <path d="m93.75 50c-0.019531 9.2344-2.9648 18.227-8.4062 25.688-4.5039-9.668-12.754-17.082-22.844-20.531 4.5234-3.4609 7.3867-8.668 7.8906-14.344 0.5-5.6758-1.4062-11.301-5.2539-15.504-3.8477-4.2031-9.2812-6.5977-14.98-6.5977s-11.133 2.3945-14.98 6.5977c-3.8477 4.2031-5.7539 9.8281-5.2539 15.504 0.50391 5.6758 3.3672 10.883 7.8906 14.344-10.148 3.4141-18.461 10.832-23 20.531-8.3555-11.312-10.766-25.949-6.4766-39.34 4.2891-13.395 14.754-23.906 28.129-28.258 13.371-4.3516 28.02-2.0117 39.367 6.293 11.352 8.3008 18.016 21.555 17.918 35.617zm-29.688-10.938c0-5.6875-3.4258-10.816-8.6797-12.992-5.2578-2.1758-11.305-0.97266-15.328 3.0469-4.0195 4.0234-5.2227 10.07-3.0469 15.328 2.1758 5.2539 7.3047 8.6797 12.992 8.6797 7.7578-0.015625 14.047-6.3047 14.062-14.062zm-14.062 20.312c-6.7383 0.015625-13.309 2.0977-18.82 5.9727-5.5117 3.875-9.6992 9.3477-11.992 15.684 8.1953 8.1289 19.27 12.691 30.812 12.691s22.617-4.5625 30.812-12.691c-2.293-6.3359-6.4805-11.809-11.992-15.684-5.5117-3.875-12.082-5.957-18.82-5.9727z"/>
</svg>