<svg xmlns="http://www.w3.org/2000/svg" version="1.1" viewBox="-5.0 -10.0 110.0 135.0" fill="#00ff5e">
 <path d="m90.059 60.914-4.793-2.9766c-5.8867-3.6523-5.8867-12.219 0-15.871l4.7969-2.9766c2.4453-1.5156 3.1953-4.7305 1.6797-7.1719l-7.0117-11.293c-1.5156-2.4453-4.7305-3.1953-7.1719-1.6797l-1.4297 0.88672c-6.2227 3.8633-14.266-0.61328-14.266-7.9375v-1.6836c0-2.8789-2.332-5.2109-5.2109-5.2109h-13.293c-2.8789 0-5.2109 2.332-5.2109 5.2109v1.6836c0 7.3242-8.0469 11.801-14.266 7.9375l-1.4297-0.88672c-2.4453-1.5156-5.6562-0.76562-7.1719 1.6797l-7.0117 11.293c-1.5156 2.4453-0.76562 5.6562 1.6797 7.1719l4.793 2.9766c5.8867 3.6523 5.8867 12.219 0 15.871l-4.793 2.9766c-2.4453 1.5156-3.1953 4.7305-1.6797 7.1719l7.0117 11.293c1.5156 2.4453 4.7305 3.1953 7.1719 1.6797l1.4297-0.88672c6.2227-3.8633 14.266 0.61328 14.266 7.9375v1.6836c0 2.8789 2.332 5.2109 5.2109 5.2109h13.293c2.8789 0 5.2109-2.332 5.2109-5.2109v-1.6836c0-7.3242 8.043-11.801 14.266-7.9375l1.4297 0.88672c2.4453 1.5156 5.6562 0.76562 7.1719-1.6797l7.0117-11.293c1.5156-2.4453 0.76562-5.6562-1.6797-7.1719zm-40.059 5.3594c-8.9883 0-16.273-7.2852-16.273-16.273s7.2852-16.273 16.273-16.273 16.273 7.2852 16.273 16.273-7.2852 16.273-16.273 16.273z"/>
</svg>