<svg xmlns="http://www.w3.org/2000/svg" xmlns:xlink="http://www.w3.org/1999/xlink" version="1.1" x="0px" y="0px" viewBox="0 0 64 80" enable-background="new 0 0 64 64" xml:space="preserve"><g><path fill="#FFAF50" d="M61.035,19.784c0.101-1.13-0.364-1.736-1.573-2.328c-8.813-4.336-17.584-8.734-26.338-13.152   c-0.423-0.211-0.77-0.32-1.125-0.32c-0.355,0-0.702,0.109-1.116,0.32C22.12,8.722,13.358,13.119,4.545,17.456   c-1.209,0.592-1.675,1.198-1.582,2.328c0.144,1.566,0.042,3.145,0.042,4.765h3.51l8.5,0.048h33.975l8.5-0.048h3.51   C61.001,22.929,60.899,21.349,61.035,19.784z"/><path fill="#FFAF50" d="M57.489,49.658h-0.922l-0.011-0.827l0-15.173c0-0.23-0.002-0.461-0.004-0.689   c-0.007-0.726-0.01-1.383,0.028-2.069c0.04-0.74,0.613-1.654,1.502-1.898c0.556-0.153,0.911-0.51,0.881-0.888   c-0.043-0.53-0.378-0.853-0.895-0.86c-1.458-0.021-2.95-0.031-4.435-0.031c-1.358,0-2.838,0.009-4.655,0.029   c-0.443,0.006-0.836,0.307-0.874,0.672c-0.008,0.083-0.066,0.837,0.492,0.954c1.235,0.259,1.861,1.058,1.861,2.374   c-0.012,3.79-0.011,7.654-0.011,11.391l0,5.284c0,0.432,0,0.745-0.028,1.027l-0.07,0.705h-8.133l-0.011-0.827l0-15.173   c0-0.23-0.002-0.461-0.004-0.689c-0.007-0.726-0.01-1.383,0.028-2.069c0.04-0.74,0.613-1.654,1.502-1.898   c0.556-0.153,0.911-0.51,0.881-0.888c-0.043-0.53-0.378-0.853-0.895-0.86c-1.458-0.021-2.95-0.031-4.435-0.031   c-1.358,0-2.838,0.009-4.655,0.029c-0.443,0.006-0.836,0.307-0.874,0.672c-0.008,0.083-0.066,0.837,0.492,0.954   c1.235,0.259,1.861,1.058,1.861,2.374c-0.012,3.79-0.011,7.654-0.011,11.391l0,5.284c0,0.432,0,0.745-0.028,1.027l-0.07,0.705   h-8.133l-0.011-0.827l0-15.173c0-0.23-0.002-0.461-0.004-0.689c-0.007-0.726-0.01-1.383,0.028-2.069   c0.04-0.74,0.613-1.654,1.502-1.898c0.556-0.153,0.911-0.51,0.881-0.888c-0.043-0.53-0.378-0.853-0.895-0.86   c-1.458-0.021-2.95-0.031-4.435-0.031c-1.358,0-2.838,0.009-4.655,0.029c-0.443,0.006-0.836,0.307-0.874,0.672   c-0.008,0.083-0.066,0.837,0.492,0.954c1.235,0.259,1.861,1.058,1.861,2.374c-0.012,3.79-0.011,7.654-0.011,11.391l0,5.284   c0,0.432,0,0.745-0.028,1.027l-0.07,0.705h-8.133l-0.011-0.827l0-15.173c0-0.23-0.002-0.461-0.004-0.689   c-0.007-0.726-0.01-1.383,0.028-2.069c0.04-0.74,0.613-1.654,1.502-1.898c0.556-0.153,0.911-0.51,0.881-0.888   c-0.043-0.53-0.378-0.853-0.895-0.86c-1.458-0.021-2.95-0.031-4.435-0.031c-1.358,0-2.838,0.009-4.655,0.029   c-0.443,0.006-0.836,0.307-0.874,0.672c-0.008,0.083-0.066,0.837,0.492,0.954c1.235,0.259,1.861,1.058,1.861,2.374   c-0.012,3.79-0.011,7.654-0.011,11.391l0,5.284c0,0.432,0,0.745-0.028,1.027l-0.07,0.705H6.511c-1.287,0-2.331,1.043-2.331,2.331   v1.665h55.64v-1.665C59.82,50.701,58.777,49.658,57.489,49.658z"/><path fill="#FFAF50" d="M63.446,60.016H0.554v0c0-2.452,1.988-4.439,4.439-4.439h54.012C61.458,55.577,63.446,57.564,63.446,60.016   L63.446,60.016z"/></g></svg>